# xmcd
#
# Track frame offsets: 
#        150
#        12917
#        28822
#        47932
#        65685
#        80975
#        95845
#        110000
#        123377
#        136285
#        165665
#        179332
#        190530
#        205907
#        226057
#        242795
#        255615
#        276907
#
# Disc length: 3952 seconds
#
# Revision: 0
# Processed by: cddbd v1.5.2PL0 Copyright (c) Steve Scherf et al.
# Submitted via: ExactAudioCopy v1.0b1
#
DISCID=080f6e12
DTITLE=Matuška Waldemar - Jsem svým pánem
DYEAR=1997
DGENRE=Country
TTITLE0=Dobrý den
TTITLE1=Proč bych nepřiznal
TTITLE2=Tajná láska
TTITLE3=Její píseň
TTITLE4=Půlměsíc
TTITLE5=Tu lásku víc už nepotkáš
TTITLE6=Nejkrásnější řeka
TTITLE7=Běž, Báro spát
TTITLE8=Kousek lásky zůstal ve strunách
TTITLE9=Jsem svým pánem
TTITLE10=Říkám to na rovinu
TTITLE11=Mám nostalgický pocit
TTITLE12=Kuchyně je naše
TTITLE13=Měla pár letních opánků
TTITLE14=Na starý motiv
TTITLE15=Příliv
TTITLE16=Dej mi jen pár kapek vína
TTITLE17=Signora bella ciao
EXTD=
EXTT0=
EXTT1=
EXTT2=
EXTT3=
EXTT4=
EXTT5=
EXTT6=
EXTT7=
EXTT8=
EXTT9=
EXTT10=
EXTT11=
EXTT12=
EXTT13=
EXTT14=
EXTT15=
EXTT16=
EXTT17=
PLAYORDER=
